<svg xmlns="http://www.w3.org/2000/svg" viewBox="0 0 512 512" width="512" height="512">
  <defs>
    <linearGradient id="wbg" x1="0" y1="0" x2=".2" y2="1"><stop offset="0" stop-color="#ffffff"/><stop offset="1" stop-color="#f3f7fe"/></linearGradient>
    <linearGradient id="kek" gradientUnits="userSpaceOnUse" x1="90" y1="400" x2="430" y2="120"><stop offset="0" stop-color="#0A2E6B"/><stop offset="1" stop-color="#2E86FF"/></linearGradient>
    <linearGradient id="kek2" x1="0" y1="0" x2="0.35" y2="1"><stop offset="0" stop-color="#2E86FF"/><stop offset="1" stop-color="#0A2E6B"/></linearGradient>
    <filter id="sh" filterUnits="userSpaceOnUse" x="-200" y="-200" width="912" height="912"><feDropShadow dx="0" dy="10" stdDeviation="12" flood-color="#0A2E6B" flood-opacity=".18"/></filter>
  </defs>
  <rect width="512" height="512" rx="114" fill="url(#wbg)"/>
  <g filter="url(#sh)" transform="translate(256 258) scale(1.1) translate(-256 -285)">
    <path d="M 244 214 C 206 182, 142 174, 88 194 L 88 366 C 142 346, 206 354, 244 386 Z" fill="#2E86FF" opacity="0.22" transform="translate(0,22)"/>
    <path d="M 268 214 C 306 182, 370 174, 424 194 L 424 366 C 370 346, 306 354, 268 386 Z" fill="#2E86FF" opacity="0.22" transform="translate(0,22)"/>
    <path d="M 244 202 C 206 170, 142 162, 88 182 L 88 354 C 142 334, 206 342, 244 374 Z" fill="url(#kek2)"/>
    <path d="M 268 202 C 306 170, 370 162, 424 182 L 424 354 C 370 334, 306 342, 268 374 Z" fill="url(#kek2)"/></g>
  <rect x="1" y="1" width="510" height="510" rx="113" fill="none" stroke="#0A2E6B" stroke-opacity=".08" stroke-width="2"/>
</svg>